<svg id="Calque_1" data-name="Calque 1" xmlns="http://www.w3.org/2000/svg" viewBox="0 0 944.14 359.28"><defs><style>.cls-1,.cls-2{fill:#3f84a8;}.cls-2{font-size:121.2px;font-family:Helvetica-Bold, Helvetica;font-weight:700;letter-spacing:0.1em;}.cls-3{letter-spacing:0.07em;}.cls-4{letter-spacing:0.1em;}</style></defs><title>LOGO SVG sans texte</title><path class="cls-1" d="M516.18,58a4.3,4.3,0,0,0-4.3-4.31H497.54a4.3,4.3,0,0,0-4.3,4.31v3.51l22.94,18.29Z" transform="translate(-63.56 -50.84)"/><path class="cls-1" d="M578,58a4.31,4.31,0,0,0-4.3-4.31H559.39A4.31,4.31,0,0,0,555.08,58v21.8L578,61.52Z" transform="translate(-63.56 -50.84)"/><rect class="cls-1" x="379.02" y="112.95" width="9.02" height="7.05" rx="1.15"/><rect class="cls-1" x="353.13" y="112.95" width="9.02" height="7.05" rx="1.15"/><rect class="cls-1" x="329.43" y="112.95" width="9.02" height="7.05" rx="1.15"/><rect class="cls-1" x="414.35" y="112.95" width="9.02" height="7.05" rx="1.15"/><rect class="cls-1" x="402.71" y="112.95" width="9.02" height="7.05" rx="1.15"/><rect class="cls-1" x="520.94" y="112.95" width="9.02" height="7.05" rx="1.15"/><rect class="cls-1" x="317.8" y="112.95" width="9.02" height="7.05" rx="1.15"/><rect class="cls-1" x="390.65" y="112.95" width="9.02" height="7.05" rx="1.15"/><rect class="cls-1" x="341.49" y="112.95" width="9.02" height="7.05" rx="1.15"/><rect class="cls-1" x="593.8" y="112.95" width="9.02" height="7.05" rx="1.15"/><rect class="cls-1" x="605.85" y="112.95" width="9.02" height="7.05" rx="1.15"/><rect class="cls-1" x="617.49" y="112.95" width="9.02" height="7.05" rx="1.15"/><path class="cls-1" d="M726.13,201H712.5V153.69h12.55a1.15,1.15,0,0,0,1-1.16c0-1-4.51-3.75-4.51-3.75l-19.66-11.63-7.66-4.89a13.07,13.07,0,0,0-8.09-2.45H676l-.52.27v-6.26H695a2.36,2.36,0,0,0,1-2c0-1.37-88-68.92-88-68.92a8.31,8.31,0,0,0-5.21-2.07c-3,0-12.7,7.91-12.7,7.91l-54.56,42-54.56-42s-9.66-7.91-12.69-7.91a8.31,8.31,0,0,0-5.21,2.07s-88,67.55-88,68.92a2.36,2.36,0,0,0,1,2h19.58v6.26l-.52-.27H385.16a13.05,13.05,0,0,0-8.08,2.45l-7.67,4.89-19.65,11.63s-4.52,2.72-4.52,3.75a1.16,1.16,0,0,0,1,1.16h12.55V201H345.14a4.88,4.88,0,0,0,0,9.76h381a4.88,4.88,0,0,0,0-9.76ZM607.35,105.84c0-.26,1-1,1-1s18.28-14.54,20-15.92,2.44-1.06,2.44-1.06.72-.33,2.44,1.06,20,15.92,20,15.92,1,.78,1,1c0,.54.06,1-1,1h-6l-16.43-12.5-16.43,12.5h-6C607.28,106.82,607.35,106.38,607.35,105.84Zm36.48,5.65v4.62a2.68,2.68,0,0,1-2.69,2.69h-6.63a2.68,2.68,0,0,1-2.69-2.69v-4.62a2.69,2.69,0,0,1,2.69-2.7h6.63A2.69,2.69,0,0,1,643.83,111.49Zm-16.67,7.31h-6.63a2.68,2.68,0,0,1-2.69-2.69v-4.62a2.69,2.69,0,0,1,2.69-2.7h6.63a2.69,2.69,0,0,1,2.69,2.7v4.62A2.68,2.68,0,0,1,627.16,118.8Zm2.69,4.69v4.63a2.68,2.68,0,0,1-2.69,2.69h-6.63a2.68,2.68,0,0,1-2.69-2.69v-4.63a2.69,2.69,0,0,1,2.69-2.69h6.63A2.69,2.69,0,0,1,629.85,123.49ZM417.23,105.84c0-.26,1-1,1-1s18.28-14.54,20-15.92,2.44-1.06,2.44-1.06.72-.33,2.44,1.06,20,15.92,20,15.92,1,.78,1,1c0,.54.06,1-1,1h-6l-16.43-12.5-16.43,12.5h-6C417.16,106.82,417.23,106.38,417.23,105.84Zm33.67,13h-6.63a2.69,2.69,0,0,1-2.69-2.69v-4.62a2.7,2.7,0,0,1,2.69-2.7h6.63a2.7,2.7,0,0,1,2.7,2.7v4.62A2.69,2.69,0,0,1,450.9,118.8Zm2.7,4.69v4.63a2.69,2.69,0,0,1-2.7,2.69h-6.63a2.69,2.69,0,0,1-2.69-2.69v-4.63a2.7,2.7,0,0,1,2.69-2.69h6.63A2.7,2.7,0,0,1,453.6,123.49Zm-14-12v4.62a2.69,2.69,0,0,1-2.7,2.69H430.3a2.69,2.69,0,0,1-2.7-2.69v-4.62a2.7,2.7,0,0,1,2.7-2.7h6.62A2.7,2.7,0,0,1,439.62,111.49ZM431.23,201H375.84V163.38A36.69,36.69,0,0,1,403,151.85a40.56,40.56,0,0,1,28.22,11.53Zm-.93-70.16a2.69,2.69,0,0,1-2.7-2.69v-4.63a2.7,2.7,0,0,1,2.7-2.69h6.62a2.7,2.7,0,0,1,2.7,2.69v4.63a2.69,2.69,0,0,1-2.7,2.69ZM492.45,201H437.06V163.38a36.69,36.69,0,0,1,27.17-11.53,40.56,40.56,0,0,1,28.22,11.53Zm2.82-72.85a2.69,2.69,0,0,1-2.7,2.69h-6.63a2.69,2.69,0,0,1-2.69-2.69v-4.63a2.7,2.7,0,0,1,2.69-2.69h6.63a2.7,2.7,0,0,1,2.7,2.69Zm0-12a2.69,2.69,0,0,1-2.7,2.69h-6.63a2.69,2.69,0,0,1-2.69-2.69v-4.62a2.7,2.7,0,0,1,2.69-2.7h6.63a2.7,2.7,0,0,1,2.7,2.7Zm2,12v-4.63a2.69,2.69,0,0,1,2.69-2.69h6.63a2.69,2.69,0,0,1,2.69,2.69v4.63a2.68,2.68,0,0,1-2.69,2.69h-6.63A2.68,2.68,0,0,1,497.23,128.12Zm0-12v-4.62a2.69,2.69,0,0,1,2.69-2.7h6.63a2.69,2.69,0,0,1,2.69,2.7v4.62a2.68,2.68,0,0,1-2.69,2.69h-6.63A2.68,2.68,0,0,1,497.23,116.11ZM519.45,201H498.28V163.38s2.84-3.56,10.88-3.56,10.29,3.56,10.29,3.56Zm-.82-94.15h-6l-16.43-12.5-16.43,12.5h-6c-1.06,0-1-.44-1-1,0-.26,1-1,1-1s18.28-14.54,20-15.92,2.44-1.06,2.44-1.06.73-.33,2.44,1.06,20,15.92,20,15.92,1,.78,1,1C519.62,106.38,519.69,106.82,518.63,106.82ZM546.22,201H525.05V163.38s2.24-3.56,10.29-3.56,10.88,3.56,10.88,3.56Zm26.93,0H552V163.38s2.24-3.56,10.28-3.56,10.88,3.56,10.88,3.56Zm1.06-72.85a2.69,2.69,0,0,1-2.7,2.69h-6.63a2.69,2.69,0,0,1-2.69-2.69v-4.63a2.7,2.7,0,0,1,2.69-2.69h6.63a2.7,2.7,0,0,1,2.7,2.69Zm0-12a2.69,2.69,0,0,1-2.7,2.69h-6.63a2.69,2.69,0,0,1-2.69-2.69v-4.62a2.7,2.7,0,0,1,2.69-2.7h6.63a2.7,2.7,0,0,1,2.7,2.7Zm-15.4-9.29h-6c-1.06,0-1-.44-1-1,0-.26,1-1,1-1s18.28-14.54,20-15.92,2.44-1.06,2.44-1.06.73-.33,2.44,1.06,20,15.92,20,15.92,1,.78,1,1c0,.54.07,1-1,1h-6l-16.43-12.5Zm29.37,4.67v4.62a2.68,2.68,0,0,1-2.69,2.69h-6.63a2.68,2.68,0,0,1-2.69-2.69v-4.62a2.69,2.69,0,0,1,2.69-2.7h6.63A2.69,2.69,0,0,1,588.18,111.49Zm-12,16.63v-4.63a2.69,2.69,0,0,1,2.69-2.69h6.63a2.69,2.69,0,0,1,2.69,2.69v4.63a2.68,2.68,0,0,1-2.69,2.69h-6.63A2.68,2.68,0,0,1,576.17,128.12ZM634.37,201H579V163.38a40.56,40.56,0,0,1,28.22-11.53,36.65,36.65,0,0,1,27.16,11.53Zm-2.55-72.85v-4.63a2.69,2.69,0,0,1,2.69-2.69h6.63a2.69,2.69,0,0,1,2.69,2.69v4.63a2.68,2.68,0,0,1-2.69,2.69h-6.63A2.68,2.68,0,0,1,631.82,128.12ZM695.59,201H640.21V163.38a40.56,40.56,0,0,1,28.22-11.53,36.65,36.65,0,0,1,27.16,11.53Z" transform="translate(-63.56 -50.84)"/><rect class="cls-1" x="582.16" y="112.95" width="9.02" height="7.05" rx="1.15"/><rect class="cls-1" x="544.63" y="112.95" width="9.02" height="7.05" rx="1.15"/><rect class="cls-1" x="556.27" y="112.95" width="9.02" height="7.05" rx="1.15"/><rect class="cls-1" x="532.58" y="112.95" width="9.02" height="7.05" rx="1.15"/><text class="cls-2" transform="translate(0 300.99) scale(1.01 1)">VILLAS<tspan class="cls-3" x="505.13" y="0"> </tspan><tspan class="cls-4" x="546.72" y="0">AZUR</tspan></text></svg>