<svg id="Calque_1" data-name="Calque 1" xmlns="http://www.w3.org/2000/svg" viewBox="0 0 944.14 361.09"><defs><style>.cls-1,.cls-2{fill:#3f84a8;}.cls-2{font-size:121.2px;font-family:Helvetica-Bold, Helvetica;font-weight:700;letter-spacing:0.1em;}.cls-3{letter-spacing:0.07em;}.cls-4{letter-spacing:0.1em;}</style></defs><title>LOGO SVG sans texte</title><path class="cls-1" d="M450.08,7.17a4.29,4.29,0,0,0-4.3-4.3H431.44a4.29,4.29,0,0,0-4.3,4.3v3.51L450.08,29Z" transform="translate(0)"/><path class="cls-1" d="M511.93,7.17a4.3,4.3,0,0,0-4.3-4.3H493.29A4.3,4.3,0,0,0,489,7.17V29l22.95-18.3Z" transform="translate(0)"/><rect class="cls-1" x="376.48" y="112.95" width="9.02" height="7.05" rx="1.15"/><rect class="cls-1" x="350.59" y="112.95" width="9.02" height="7.05" rx="1.15"/><rect class="cls-1" x="326.89" y="112.95" width="9.02" height="7.05" rx="1.15"/><rect class="cls-1" x="411.81" y="112.95" width="9.02" height="7.05" rx="1.15"/><rect class="cls-1" x="400.17" y="112.95" width="9.02" height="7.05" rx="1.15"/><rect class="cls-1" x="518.4" y="112.95" width="9.02" height="7.05" rx="1.15"/><rect class="cls-1" x="315.26" y="112.95" width="9.02" height="7.05" rx="1.15"/><rect class="cls-1" x="388.11" y="112.95" width="9.02" height="7.05" rx="1.15"/><rect class="cls-1" x="338.95" y="112.95" width="9.02" height="7.05" rx="1.15"/><rect class="cls-1" x="591.26" y="112.95" width="9.02" height="7.05" rx="1.15"/><rect class="cls-1" x="603.31" y="112.95" width="9.02" height="7.05" rx="1.15"/><rect class="cls-1" x="614.95" y="112.95" width="9.02" height="7.05" rx="1.15"/><path class="cls-1" d="M660,150.13H646.4V102.86H659a1.15,1.15,0,0,0,1-1.17c0-1-4.51-3.75-4.51-3.75L635.75,86.32l-7.66-4.9A13.07,13.07,0,0,0,620,79H609.87l-.52.28V73h19.58a2.38,2.38,0,0,0,1-2c0-1.37-88-68.92-88-68.92A8.29,8.29,0,0,0,536.79,0c-3,0-12.7,7.91-12.7,7.91l-54.56,42L415,7.91S405.31,0,402.28,0a8.29,8.29,0,0,0-5.21,2.08s-88,67.55-88,68.92a2.38,2.38,0,0,0,1,2h19.58v6.26L329.2,79H319.06A13.05,13.05,0,0,0,311,81.42l-7.67,4.9L283.66,97.94s-4.52,2.73-4.52,3.75a1.16,1.16,0,0,0,1,1.17h12.55v47.27H279a4.88,4.88,0,0,0,0,9.76H660a4.88,4.88,0,0,0,0-9.76ZM541.25,55c0-.26,1-1,1-1s18.28-14.54,20-15.93,2.44-1,2.44-1,.72-.33,2.44,1,20,15.93,20,15.93,1,.77,1,1c0,.54.06,1-1,1h-6L564.68,43.48,548.25,56h-6C541.18,56,541.25,55.54,541.25,55Zm36.48,5.65v4.62A2.69,2.69,0,0,1,575,68h-6.63a2.69,2.69,0,0,1-2.69-2.7V60.65A2.68,2.68,0,0,1,568.41,58H575A2.68,2.68,0,0,1,577.73,60.65ZM561.06,68h-6.63a2.69,2.69,0,0,1-2.69-2.7V60.65A2.68,2.68,0,0,1,554.43,58h6.63a2.68,2.68,0,0,1,2.69,2.69v4.62A2.69,2.69,0,0,1,561.06,68Zm2.69,4.69v4.62a2.69,2.69,0,0,1-2.69,2.7h-6.63a2.69,2.69,0,0,1-2.69-2.7V72.66a2.69,2.69,0,0,1,2.69-2.7h6.63A2.69,2.69,0,0,1,563.75,72.66ZM351.13,55c0-.26,1-1,1-1s18.28-14.54,20-15.93,2.44-1,2.44-1,.72-.33,2.44,1S397,54,397,54s1,.77,1,1c0,.54.06,1-1,1h-6L374.56,43.48,358.13,56h-6C351.06,56,351.13,55.54,351.13,55ZM384.8,68h-6.63a2.7,2.7,0,0,1-2.69-2.7V60.65A2.69,2.69,0,0,1,378.17,58h6.63a2.69,2.69,0,0,1,2.7,2.69v4.62A2.7,2.7,0,0,1,384.8,68Zm2.7,4.69v4.62a2.7,2.7,0,0,1-2.7,2.7h-6.63a2.7,2.7,0,0,1-2.69-2.7V72.66a2.7,2.7,0,0,1,2.69-2.7h6.63A2.7,2.7,0,0,1,387.5,72.66Zm-14-12v4.62a2.7,2.7,0,0,1-2.7,2.7H364.2a2.7,2.7,0,0,1-2.7-2.7V60.65A2.69,2.69,0,0,1,364.2,58h6.62A2.69,2.69,0,0,1,373.52,60.65Zm-8.39,89.48H309.74V112.55A36.67,36.67,0,0,1,336.91,101a40.55,40.55,0,0,1,28.22,11.54ZM364.2,80a2.7,2.7,0,0,1-2.7-2.7V72.66a2.7,2.7,0,0,1,2.7-2.7h6.62a2.7,2.7,0,0,1,2.7,2.7v4.62a2.7,2.7,0,0,1-2.7,2.7Zm62.15,70.15H371V112.55A36.67,36.67,0,0,1,398.13,101a40.55,40.55,0,0,1,28.22,11.54Zm2.82-72.85a2.7,2.7,0,0,1-2.7,2.7h-6.63a2.7,2.7,0,0,1-2.69-2.7V72.66a2.7,2.7,0,0,1,2.69-2.7h6.63a2.7,2.7,0,0,1,2.7,2.7Zm0-12a2.7,2.7,0,0,1-2.7,2.7h-6.63a2.7,2.7,0,0,1-2.69-2.7V60.65A2.69,2.69,0,0,1,419.84,58h6.63a2.69,2.69,0,0,1,2.7,2.69Zm2,12V72.66a2.69,2.69,0,0,1,2.69-2.7h6.63a2.69,2.69,0,0,1,2.69,2.7v4.62a2.69,2.69,0,0,1-2.69,2.7h-6.63A2.69,2.69,0,0,1,431.13,77.28Zm0-12V60.65A2.68,2.68,0,0,1,433.82,58h6.63a2.68,2.68,0,0,1,2.69,2.69v4.62a2.69,2.69,0,0,1-2.69,2.7h-6.63A2.69,2.69,0,0,1,431.13,65.27Zm22.22,84.86H432.18V112.55S435,109,443.06,109s10.29,3.56,10.29,3.56ZM452.53,56h-6L430.09,43.48,413.66,56h-6c-1.06,0-1-.45-1-1,0-.26,1-1,1-1s18.28-14.54,20-15.93,2.44-1,2.44-1,.73-.33,2.44,1,20,15.93,20,15.93,1,.77,1,1C453.52,55.54,453.59,56,452.53,56Zm27.59,94.14H459V112.55s2.24-3.56,10.29-3.56,10.88,3.56,10.88,3.56Zm26.93,0H485.89V112.55s2.24-3.56,10.28-3.56,10.88,3.56,10.88,3.56Zm1.06-72.85a2.7,2.7,0,0,1-2.7,2.7h-6.63a2.7,2.7,0,0,1-2.69-2.7V72.66a2.7,2.7,0,0,1,2.69-2.7h6.63a2.7,2.7,0,0,1,2.7,2.7Zm0-12a2.7,2.7,0,0,1-2.7,2.7h-6.63a2.7,2.7,0,0,1-2.69-2.7V60.65A2.69,2.69,0,0,1,498.78,58h6.63a2.69,2.69,0,0,1,2.7,2.69ZM492.71,56h-6c-1.06,0-1-.45-1-1,0-.26,1-1,1-1S505,39.43,506.7,38s2.44-1,2.44-1,.73-.33,2.44,1,20,15.93,20,15.93,1,.77,1,1c0,.54.07,1-1,1h-6L509.14,43.48Zm29.37,4.66v4.62a2.69,2.69,0,0,1-2.69,2.7h-6.63a2.69,2.69,0,0,1-2.69-2.7V60.65A2.68,2.68,0,0,1,512.76,58h6.63A2.68,2.68,0,0,1,522.08,60.65Zm-12,16.63V72.66a2.69,2.69,0,0,1,2.69-2.7h6.63a2.69,2.69,0,0,1,2.69,2.7v4.62a2.69,2.69,0,0,1-2.69,2.7h-6.63A2.69,2.69,0,0,1,510.07,77.28Zm58.2,72.85H512.89V112.55A40.55,40.55,0,0,1,541.11,101a36.64,36.64,0,0,1,27.16,11.54Zm-2.55-72.85V72.66a2.69,2.69,0,0,1,2.69-2.7H575a2.69,2.69,0,0,1,2.69,2.7v4.62A2.69,2.69,0,0,1,575,80h-6.63A2.69,2.69,0,0,1,565.72,77.28Zm63.77,72.85H574.11V112.55A40.55,40.55,0,0,1,602.33,101a36.64,36.64,0,0,1,27.16,11.54Z" transform="translate(0)"/><rect class="cls-1" x="579.62" y="112.95" width="9.02" height="7.05" rx="1.15"/><rect class="cls-1" x="542.1" y="112.95" width="9.02" height="7.05" rx="1.15"/><rect class="cls-1" x="553.73" y="112.95" width="9.02" height="7.05" rx="1.15"/><rect class="cls-1" x="530.04" y="112.95" width="9.02" height="7.05" rx="1.15"/><text class="cls-2" transform="translate(0 302.8) scale(1.01 1)">VILLAS<tspan class="cls-3" x="505.13" y="0"> </tspan><tspan class="cls-4" x="546.72" y="0">AZUR</tspan></text></svg>